# xmcd
#
# Track frame offsets: 
#        150
#        19885
#        35450
#        52717
#        70312
#        87915
#        105487
#        123457
#        142517
#        164465
#        181591
#        198349
#        218317
#        236952
#        256338
#        276061
#
# Disc length: 3915 seconds
#
# Revision: 3
# Processed by: cddbd v1.5.2PL0 Copyright (c) Steve Scherf et al.
# Submitted via: ExactAudioCopy v1.3
#
DISCID=ce0f4910
DTITLE=Leona Lewis - Spirit
DYEAR=2008
DGENRE=Pop
TTITLE0=Bleeding Love
TTITLE1=Whatever It Takes
TTITLE2=Homeless
TTITLE3=Better In Time
TTITLE4=Yesterday
TTITLE5=Take A Bow
TTITLE6=I Will Be
TTITLE7=Angel
TTITLE8=Here I Am
TTITLE9=I'm You
TTITLE10=The Best You Never Had
TTITLE11=The First Time Ever I Saw Your Face
TTITLE12=Footprints In The Sand
TTITLE13=A Moment Like This
TTITLE14=Forgiveness
TTITLE15=You Bring Me Down
EXTD=YEAR: 2008
EXTT0=
EXTT1=
EXTT2=
EXTT3=
EXTT4=
EXTT5=
EXTT6=
EXTT7=
EXTT8=
EXTT9=
EXTT10=
EXTT11=
EXTT12=
EXTT13=
EXTT14=
EXTT15=
PLAYORDER=
